<?xml version="1.0" encoding="UTF-8" standalone="no"?>
<!-- Created with Inkscape (http://www.inkscape.org/) -->

<svg
   xmlns:dc="http://purl.org/dc/elements/1.1/"
   xmlns:cc="http://creativecommons.org/ns#"
   xmlns:rdf="http://www.w3.org/1999/02/22-rdf-syntax-ns#"
   xmlns:svg="http://www.w3.org/2000/svg"
   xmlns="http://www.w3.org/2000/svg"
   xmlns:sodipodi="http://sodipodi.sourceforge.net/DTD/sodipodi-0.dtd"
   xmlns:inkscape="http://www.inkscape.org/namespaces/inkscape"
   width="400"
   height="400"
   id="svg3783"
   version="1.1"
   inkscape:version="0.48.2 r9819"
   sodipodi:docname="Nouveau document 5">
  <defs
     id="defs3785" />
  <sodipodi:namedview
     id="base"
     pagecolor="#ffffff"
     bordercolor="#666666"
     borderopacity="1.0"
     inkscape:pageopacity="0.0"
     inkscape:pageshadow="2"
     inkscape:zoom="1.5208438"
     inkscape:cx="109.97214"
     inkscape:cy="201.0564"
     inkscape:document-units="px"
     inkscape:current-layer="layer1"
     showgrid="false"
     inkscape:window-width="1440"
     inkscape:window-height="876"
     inkscape:window-x="0"
     inkscape:window-y="24"
     inkscape:window-maximized="1" />
  <metadata
     id="metadata3788">
    <rdf:RDF>
      <cc:Work
         rdf:about="">
        <dc:format>image/svg+xml</dc:format>
        <dc:type
           rdf:resource="http://purl.org/dc/dcmitype/StillImage" />
        <dc:title></dc:title>
      </cc:Work>
    </rdf:RDF>
  </metadata>
  <g
     inkscape:label="Calque 1"
     inkscape:groupmode="layer"
     id="layer1"
     transform="translate(0,-652.36218)">
    <path
       inkscape:connector-curvature="0"
       style="fill:#4d9aef;stroke:none;display:inline;fill-opacity:1"
       d="m 40.492732,652.97814 319.014548,0 a 39.87682,39.87682 0 0 1 39.87682,39.87684 l 0,319.01432 a 39.87682,39.87682 0 0 1 -39.87682,39.8769 l -319.014548,0 A 39.87682,39.87682 0 0 1 0.6159007,1011.8693 l 0,-319.01432 A 39.87682,39.87682 0 0 1 40.492732,652.97814 z"
       id="path3075" />
    <g
       id="g3474"
       transform="matrix(1.1903229,0,0,1.1903229,293.58555,852.36218)"
       style="fill:#ffffff;display:inline">
      <path
         style="fill:#ffffff"
         id="path3253"
         d="m -81.989163,127.03145 c 11.54509,-6.69027 30.17125,-29.454394 37.10205,-45.285234 0,0 -7.13727,-3.03126 -7.13727,-3.03126 -14.33957,25.094264 -36.5882,43.517794 -29.14706,12.45912 0,0 43.92734,-137.91538 43.92734,-137.91538 -11.47164,-0.95596 -69.594327,8.33578 -78.666067,10.20892 0,0 -1.4464,7.63182 -1.4464,7.63182 19.829807,0.67846 22.521547,8.79187 21.087587,15.43707 0,0 -32.943537,105.14516 -32.943537,105.14516 0,0 -4.13368,11.895534 -4.00137,20.751784 0.31935,20.2223 26.59307,28.00423 51.224727,14.598 z"
         inkscape:connector-curvature="0" />
      <circle
         style="fill:#ffffff"
         id="circle3255"
         r="14"
         cy="76"
         cx="138"
         sodipodi:cx="138"
         sodipodi:cy="76"
         sodipodi:rx="14"
         sodipodi:ry="14"
         transform="matrix(2.02,0,0,2.02,-331.06697,-258.94157)"
         d="m 152,76 c 0,7.731986 -6.26801,14 -14,14 -7.73199,0 -14,-6.268014 -14,-14 0,-7.731986 6.26801,-14 14,-14 7.73199,0 14,6.268014 14,14 z" />
    </g>
  </g>
</svg>
